HIERARCHY
ROOT Hips
{
	OFFSET 0.000000 0.000000 0.000000
	CHANNELS 6 Xposition Yposition Zposition Zrotation Yrotation Xrotation 
	JOINT LHipJoint
	{
		OFFSET 0.000000 0.000000 0.000000
		CHANNELS 3 Zrotation Yrotation Xrotation
		JOINT LeftUpLeg
		{
			OFFSET 1.363060 -1.794630 0.839290
			CHANNELS 3 Zrotation Yrotation Xrotation
			JOINT LeftLeg
			{
				OFFSET 2.448110 -6.726130 0.000000
				CHANNELS 3 Zrotation Yrotation Xrotation
				JOINT LeftFoot
				{
					OFFSET 2.562200 -7.039590 0.000000
					CHANNELS 3 Zrotation Yrotation Xrotation
					JOINT LeftToeBase
					{
						OFFSET 0.157640 -0.433110 2.322550
						CHANNELS 3 Zrotation Yrotation Xrotation
						End Site
						{
							OFFSET 0.000000 0.000000 0.000000
						}
					}
				}
			}
		}
	}
	JOINT RHipJoint
	{
		OFFSET 0.000000 0.000000 0.000000
		CHANNELS 3 Zrotation Yrotation Xrotation
		JOINT RightUpLeg
		{
			OFFSET -1.305520 -1.794630 0.839290
			CHANNELS 3 Zrotation Yrotation Xrotation
			JOINT RightLeg
			{
				OFFSET -2.542530 -6.985550 0.000000
				CHANNELS 3 Zrotation Yrotation Xrotation
				JOINT RightFoot
				{
					OFFSET -2.568260 -7.056230 0.000000
					CHANNELS 3 Zrotation Yrotation Xrotation
					JOINT RightToeBase
					{
						OFFSET -0.164730 -0.452590 2.363150
						CHANNELS 3 Zrotation Yrotation Xrotation
						End Site
						{
							OFFSET 0.000000 0.000000 0.000000
						}
					}
				}
			}
		}
	}
}
MOTION
Frames: 33
Frame Time: 0.008333
-2.399741 16.899696 0.533037 -17.257673 83.735934 -9.375144 -9.698751 1.338039 1.283065 -17.810065 9.929023 -34.398354 -2.905628 -0.236149 11.293893 1.232495 7.835428 0.807756 1.566700 0.000000 -5.894600 9.929390 -3.333188 -1.274101 2.963858 -12.099587 3.520308 2.127055 -1.204822 20.742003 0.873883 9.052502 -0.549931 0.770500 -0.000000 -74.399299
-2.245896 16.918991 0.503807 -13.706915 83.853753 -5.887471 -9.735088 1.428762 1.385268 -17.994141 9.315885 -33.854572 -2.865146 -0.195691 11.741484 1.285231 8.135952 0.634033 1.585700 0.000000 -4.751400 10.053051 -3.352887 -1.343678 1.959285 -12.564462 2.622348 1.907401 -1.446539 23.034300 0.922509 9.922176 1.130369 1.105500 0.000000 -76.658100
-2.095188 16.938948 0.471041 -10.777390 83.960599 -2.979375 -9.762644 1.491052 1.488341 -18.128425 8.670525 -33.305367 -2.821536 -0.174795 12.138269 1.348675 8.467068 0.283496 1.581600 0.000000 -3.834700 10.175344 -3.374440 -1.391256 1.080084 -12.899613 1.571125 1.670926 -1.688370 25.475685 0.938290 10.729158 2.964778 1.518900 -0.000001 -78.528200
-1.948385 16.958613 0.436482 -7.846707 84.062036 -0.049389 -9.784904 1.531297 1.582835 -18.273322 8.008055 -32.708019 -2.779287 -0.172428 12.450200 1.424107 8.849444 -0.193541 1.561599 -0.000000 -3.151800 10.296912 -3.384958 -1.427684 0.249335 -13.130155 0.387733 1.417965 -1.925944 28.066367 0.920045 11.474797 4.890924 2.004000 0.000001 -79.923100
-1.805290 16.977366 0.398742 -5.790037 84.127327 2.044195 -9.793554 1.554975 1.662693 -18.373353 7.410352 -32.153354 -2.739612 -0.178954 12.750313 1.502564 9.212991 -0.789548 1.512200 0.000000 -2.702400 10.416738 -3.384141 -1.432027 -0.405938 -13.167442 -0.913216 1.153658 -2.147730 30.751150 0.863941 12.030139 6.845735 2.519800 -0.000000 -80.754900
-1.666268 16.994570 0.359743 -3.943475 84.168599 3.945120 -9.795779 1.567354 1.721204 -18.490705 6.886431 -31.600119 -2.706819 -0.194141 13.002100 1.582747 9.568383 -1.444077 1.443200 -0.000000 -2.465000 10.532428 -3.364541 -1.416059 -0.971520 -13.054280 -2.306204 0.883938 -2.352914 33.516023 0.775281 12.382042 8.744561 3.027399 -0.000000 -81.036000
-1.531136 17.009953 0.318940 -2.743437 84.173580 5.217997 -9.791393 1.574734 1.753671 -18.597051 6.491711 -31.093823 -2.682184 -0.210799 13.245255 1.656386 9.863335 -2.135628 1.350000 0.000000 -2.412100 10.641412 -3.325908 -1.373532 -1.392408 -12.766136 -3.766365 0.614719 -2.536472 36.314163 0.658500 12.438845 10.512467 3.461800 -0.000000 -80.800700
-1.399771 17.023388 0.277484 -1.811548 84.155172 6.228593 -9.785096 1.579682 1.758409 -18.723189 6.224970 -30.611520 -2.667505 -0.228709 13.460788 1.720504 10.096616 -2.820701 1.241900 -0.000000 -2.497500 10.741931 -3.268204 -1.313224 -1.720731 -12.345486 -5.269077 0.352441 -2.701133 39.117398 0.520260 12.172217 12.073754 3.767700 0.000000 -80.142400
-1.271957 17.035005 0.235617 -1.103600 84.121476 7.013342 -9.778757 1.584707 1.735740 -18.869322 6.088278 -30.150529 -2.662930 -0.245984 13.650427 1.771251 10.254061 -3.474848 1.124300 0.000000 -2.669000 10.833063 -3.193198 -1.240251 -1.968660 -11.819894 -6.788793 0.101356 -2.848977 41.889105 0.365678 11.546345 13.368163 3.894000 -0.000001 -79.165701
-1.147424 17.045067 0.193194 -0.681210 84.081085 7.504663 -9.773993 1.591629 1.688087 -19.021595 6.075112 -29.710227 -2.667197 -0.260588 13.821311 1.805847 10.323827 -4.086343 1.000900 -0.000000 -2.873400 10.914028 -3.102843 -1.159727 -2.136113 -11.215632 -8.300555 -0.136288 -2.981715 44.591903 0.198201 10.541579 14.350796 3.806400 0.000000 -77.957701
-1.025883 17.053960 0.150677 -0.308381 84.052649 7.931205 -9.770877 1.600075 1.621301 -19.189423 6.144186 -29.262903 -2.678597 -0.274248 13.955489 1.826122 10.325082 -4.640638 0.879900 -0.000000 -3.054000 10.985912 -2.998823 -1.080393 -2.260458 -10.575754 -9.783690 -0.358324 -3.103479 47.194622 0.019979 9.181044 14.991262 3.501599 0.000000 -76.600500
-0.907020 17.062159 0.107644 -0.088805 84.048144 8.188057 -9.769562 1.610128 1.542122 -19.351538 6.264937 -28.804750 -2.693954 -0.286269 14.058188 1.833432 10.263881 -5.142369 0.762999 -0.000000 -3.169700 11.048492 -2.882498 -1.006491 -2.335794 -9.921854 -11.220424 -0.564060 -3.214955 49.662608 -0.168097 7.497374 15.276632 2.996901 0.000000 -75.117100
-0.790572 17.070056 0.063892 -0.008863 84.082752 8.288752 -9.769458 1.620714 1.458875 -19.497047 6.391778 -28.321921 -2.709821 -0.297687 14.124616 1.831839 10.162397 -5.597238 0.653000 0.000000 -3.190500 11.102052 -2.755129 -0.942485 -2.369929 -9.277063 -12.597652 -0.752357 -3.317220 51.966004 -0.365099 5.556381 15.209769 2.336300 -0.000000 -73.514400
-0.676160 17.078065 0.019088 -0.143704 84.169908 8.162486 -9.770169 1.630704 1.380509 -19.609221 6.481925 -27.809341 -2.722544 -0.309160 14.155853 1.825674 10.041211 -6.016574 0.550100 0.000000 -3.102100 11.146209 -2.618245 -0.890072 -2.358666 -8.654694 -13.908109 -0.922009 -3.409864 54.077001 -0.569411 3.441246 14.810583 1.579800 0.000000 -71.774900
-0.563955 17.086364 -0.026329 -0.252815 84.323109 8.040659 -9.769038 1.637549 1.309461 -19.702182 6.489268 -27.221272 -2.729742 -0.324081 14.122222 1.820967 9.939781 -6.398582 0.457500 -0.000000 -2.908400 11.183242 -2.472583 -0.856609 -2.342524 -8.074489 -15.130928 -1.070873 -3.496196 55.973565 -0.777050 1.265125 14.111227 0.800900 -0.000000 -69.886701
-0.453292 17.095193 -0.073428 -0.785318 84.547097 7.495071 -9.767510 1.641450 1.256521 -19.736207 6.396860 -26.602254 -2.728194 -0.340008 14.058784 1.819419 9.854050 -6.768856 0.369800 -0.000000 -2.626800 11.210153 -2.321334 -0.833109 -2.269544 -7.521345 -16.282810 -1.198615 -3.570902 57.635881 -0.984229 -0.890310 13.167279 0.057099 0.000000 -67.851000
-0.344261 17.104541 -0.121890 -1.706117 84.848308 6.558658 -9.763624 1.641008 1.222133 -19.720020 6.186422 -25.932642 -2.717107 -0.358633 13.952160 1.823907 9.802682 -7.128011 0.287400 -0.000000 -2.283800 11.228629 -2.166762 -0.820366 -2.159614 -6.997297 -17.356358 -1.303752 -3.635233 59.052607 -1.184341 -2.924289 12.037564 -0.596800 0.000000 -65.663900
-0.236450 17.114391 -0.171709 -3.243648 85.229353 5.015846 -9.755582 1.636247 1.210789 -19.651058 5.851390 -25.232863 -2.696340 -0.379994 13.812588 1.835221 9.786603 -7.481892 0.208999 0.000000 -1.910700 11.239659 -2.012518 -0.810959 -2.004400 -6.491693 -18.367635 -1.385636 -3.688034 60.220485 -1.370783 -4.763440 10.786362 -1.128100 -0.000000 -63.315800
-0.130341 17.124427 -0.222666 -5.589854 85.685254 2.660774 -9.741687 1.625811 1.209492 -19.538750 5.424881 -24.478464 -2.667983 -0.404197 13.629660 1.849944 9.791713 -7.825306 0.133700 -0.000001 -1.543500 11.246332 -1.861054 -0.807137 -1.820607 -5.996414 -19.293969 -1.443969 -3.731287 61.130786 -1.537845 -6.354996 9.492609 -1.524300 0.000000 -61.046600
-0.025282 17.134569 -0.274446 -9.348543 86.216429 -1.088868 -9.717969 1.609405 1.224088 -19.385969 4.912490 -23.711386 -2.633587 -0.432047 13.421828 1.866289 9.804463 -8.157761 0.061400 -0.000000 -1.208600 11.251940 -1.719393 -0.795190 -1.596259 -5.498045 -20.172000 -1.478079 -3.765869 61.795062 -1.680425 -7.672709 8.204081 -1.790300 -0.000000 -58.754800
0.078745 17.144506 -0.326650 -15.467131 86.818868 -7.180158 -9.681685 1.581906 1.246083 -19.206102 4.347137 -22.933757 -2.596073 -0.465832 13.190889 1.878911 9.799243 -8.470194 -0.007100 -0.000000 -0.928900 11.260096 -1.597210 -0.769967 -1.342806 -4.990530 -21.007265 -1.486668 -3.797637 62.217842 -1.796260 -8.713431 6.974554 -1.944001 0.000000 -56.595200
0.181833 17.153979 -0.378778 -26.035300 87.490123 -17.700858 -9.640665 1.528072 1.268102 -19.016678 3.756691 -22.147740 -2.557363 -0.510673 12.941866 1.881152 9.746917 -8.749921 -0.070100 -0.000000 -0.716701 11.264056 -1.516475 -0.725765 -1.075923 -4.476262 -21.811851 -1.466041 -3.837958 62.405903 -1.885101 -9.491962 5.837778 -2.009000 0.000000 -54.638600
0.284000 17.162857 -0.430512 -45.625757 88.195934 -37.227402 -9.652060 1.417525 1.285504 -18.849579 3.169876 -21.348028 -2.517680 -0.571985 12.676467 1.864450 9.616392 -8.980283 -0.125800 0.000000 -0.573900 11.209952 -1.513662 -0.662998 -0.831892 -3.963328 -22.592541 -1.413078 -3.897566 62.366586 -1.948977 -10.038198 4.814744 -2.010400 0.000000 -52.940700
0.385449 17.170897 -0.481354 -78.407901 88.729876 -69.927336 -9.824982 1.272524 1.316618 -18.763005 2.615931 -20.567298 -2.482695 -0.632112 12.365790 1.830062 9.418655 -9.155453 -0.172000 0.000000 -0.490700 10.993694 -1.550386 -0.594726 -0.683824 -3.414733 -23.356816 -1.351843 -3.934509 62.136859 -1.989520 -10.381533 3.909812 -1.970300 0.000000 -51.535900
0.486144 17.178067 -0.531237 -111.513492 88.806256 -102.939587 -10.051750 1.224044 1.364239 -18.720218 2.167165 -19.857596 -2.467932 -0.655501 11.972790 1.789202 9.171493 -9.297105 -0.207400 -0.000000 -0.450399 10.722803 -1.465994 -0.522702 -0.595491 -2.732799 -24.078681 -1.321233 -3.876059 61.750166 -2.008875 -10.558709 3.121554 -1.907100 0.000000 -50.424100
0.586212 17.184282 -0.579940 -131.713315 88.483589 -123.029333 -10.151673 1.261986 1.400066 -18.659795 1.817502 -19.196322 -2.472425 -0.664285 11.531607 1.738140 8.840632 -9.406006 -0.231300 0.000000 -0.428999 10.571991 -1.290954 -0.420885 -0.490226 -1.954722 -24.769963 -1.295078 -3.775910 61.184140 -2.013232 -10.616368 2.440007 -1.833800 0.000000 -49.576501
0.685663 17.189563 -0.627555 -143.116516 87.922578 -134.307119 -10.167331 1.309131 1.414159 -18.598250 1.540182 -18.543642 -2.488787 -0.681273 11.068674 1.668625 8.401687 -9.469776 -0.244299 0.000000 -0.402701 10.498137 -1.120395 -0.286700 -0.391685 -1.142557 -25.439874 -1.249688 -3.683500 60.421644 -2.009001 -10.597309 1.851774 -1.759800 -0.000000 -48.944500
0.784401 17.193887 -0.674194 -150.240319 87.232080 -141.294322 -10.155217 1.344518 1.410723 -18.555271 1.319329 -17.888871 -2.514224 -0.707597 10.586422 1.581283 7.865259 -9.489255 -0.247700 0.000000 -0.349800 10.445260 -0.973276 -0.128765 -0.331780 -0.309996 -26.084489 -1.186012 -3.599879 59.465663 -2.000657 -10.533753 1.342695 -1.691400 0.000000 -48.468900
0.882395 17.197312 -0.720127 -155.170913 86.464968 -146.080703 -10.136839 1.367889 1.395097 -18.533016 1.136042 -17.228927 -2.546491 -0.740303 10.086617 1.480507 7.253618 -9.473491 -0.243900 0.000000 -0.255000 10.391630 -0.844979 0.046161 -0.322191 0.541185 -26.695836 -1.108478 -3.518195 58.319154 -1.991784 -10.451771 0.902698 -1.633000 0.000000 -48.092500
0.979619 17.199856 -0.765604 -158.842805 85.646309 -149.603594 -10.119633 1.381303 1.371560 -18.526229 0.967476 -16.560173 -2.582911 -0.776679 9.574859 1.371617 6.592465 -9.434393 -0.235100 -0.000000 -0.111100 10.329177 -0.729606 0.232459 -0.364092 1.409004 -27.263771 -1.020553 -3.433105 56.983177 -1.985062 -10.370629 0.525558 -1.587400 0.000000 -47.766400
1.075974 17.201505 -0.810862 -161.711353 84.785750 -152.320801 -10.105884 1.385933 1.344055 -18.526986 0.787617 -15.879554 -2.620355 -0.814610 9.060047 1.260164 5.909405 -9.385194 179.776000 -0.000000 -0.080100 10.254751 -0.623338 0.425417 -0.453207 2.290130 -27.778451 -0.924713 -3.341203 55.458598 -1.982388 -10.303941 0.209401 -1.556800 -0.000000 -47.455200
1.171465 17.202270 -0.856111 -164.018807 83.886764 -154.475654 -10.096180 1.382474 1.316553 -18.527084 0.570808 -15.185818 -2.655727 -0.852353 8.552783 1.151358 5.231656 -9.338764 179.787501 0.000000 -0.308800 10.167008 -0.523993 0.621481 -0.583362 3.181092 -28.232544 -0.823027 -3.240110 53.748056 -1.984791 -10.259554 -0.044801 -1.542700 0.000000 -47.137500
1.266130 17.202102 -0.901441 -165.909860 82.949706 -156.213065 -10.090131 1.371436 1.292800 -18.520359 0.294097 -14.480219 -2.686428 -0.888455 8.064242 1.049583 4.583516 -9.306636 179.797800 0.000000 -0.558300 10.065715 -0.430621 0.818060 -0.747520 4.078146 -28.621228 -0.717293 -3.128268 51.857417 -1.992652 -10.241359 -0.235656 -1.545900 0.000000 -46.802800
